<?xml version="1.0" standalone="no"?><!DOCTYPE svg PUBLIC "-//W3C//DTD SVG 1.1//EN" "http://www.w3.org/Graphics/SVG/1.1/DTD/svg11.dtd"><svg t="1709395939725" class="icon" viewBox="0 0 1024 1024" version="1.1" xmlns="http://www.w3.org/2000/svg" p-id="10369" xmlns:xlink="http://www.w3.org/1999/xlink" width="64" height="64"><path d="M896 128a42.666667 42.666667 0 0 1 42.666667 42.666667v597.333333a42.666667 42.666667 0 0 1-42.666667 42.666667h-279.466667L512 960 407.466667 810.666667H128a42.666667 42.666667 0 0 1-42.666667-42.666667V170.666667a42.666667 42.666667 0 0 1 42.666667-42.666667h768z m-355.157333 191.488c-31.872 0-62.08 4.693333-90.624 13.994667a238.506667 238.506667 0 0 0-74.752 39.253333 182.826667 182.826667 0 0 0-50.688 63.146667 183.466667 183.466667 0 0 0-18.773334 82.602666c0 50.773333 17.109333 91.733333 51.370667 122.88 34.261333 31.146667 80.042667 46.762667 137.386667 46.762667l11.264-45.397333c-45.738667 0-80.64-11.306667-104.618667-33.962667-24.021333-22.613333-36.010667-52.736-36.010667-90.282667 0-28.202667 7.168-54.058667 21.504-77.482666 14.336-23.466667 34.432-41.984 60.245334-55.637334 25.813333-13.653333 54.784-20.48 86.869333-20.48 37.973333 0 68.266667 10.026667 90.794667 30.037334 22.528 20.053333 33.792 46.634667 33.792 79.872 0 22.058667-5.333333 39.978667-16.042667 53.76-10.666667 13.781333-21.034667 20.650667-31.061333 20.650666-7.765333 0-11.605333-4.096-11.52-12.288l0.256-3.754666 5.461333-41.642667c3.413333-26.88-2.517333-47.957333-17.749333-63.317333-15.232-15.36-36.736-23.04-64.512-23.04-27.733333 0-52.224 8.96-73.386667 26.965333a106.410667 106.410667 0 0 0-37.376 69.632c-3.754667 28.458667 1.834667 51.882667 16.725333 70.314667 14.933333 18.432 33.706667 27.648 56.490667 27.648 28.202667 0 50.304-13.994667 66.218667-41.984 4.309333 27.989333 22.741333 41.984 55.296 41.984 29.141333 0 54.826667-11.989333 77.141333-36.010667 22.314667-24.021333 33.450667-53.546667 33.450667-88.576 0-48.682667-16.170667-86.826667-48.469334-114.346667-32.298667-27.52-75.221333-41.301333-128.682666-41.301333z m-25.6 135.850667c10.453333 0 19.114667 4.096 25.941333 12.288 7.04 7.978667 9.557333 19.456 7.509333 34.474666-1.834667 15.018667-7.253333 26.624-16.384 34.816-9.088 8.192-18.944 12.288-29.525333 12.288a32.682667 32.682667 0 0 1-26.112-12.117333c-6.826667-8.106667-9.258667-19.626667-7.338667-34.645333 1.92-15.018667 7.466667-26.624 16.554667-34.816 9.088-8.192 18.901333-12.288 29.354667-12.288z" p-id="10370" fill="#1296db"></path></svg>